PathFileType	4	(X/Y/Z)	C:\Users\ebm\Documents\Erivelton\Erivelton2\wc2.trc
DataRate	CameraRate	NumFrames	NumMarkers	Units	OrigDataRate	OrigDataStartFrame	OrigNumFrames
150.00	150.00	      31	28	mm	150.00	1216	      1389
Frame#	Time	IJ			PX			C7			T8			RAC			RAS			RPS			RAI			RPI			RLE			RME			RRS			RUS			R3M			R5M			LAC			LAS			LPS			LAI			LPI			LLE			LME			LRS			LUS			L3M			L5M			RW			LW			V_mid_elbow_r			V_mid_elbow_l			V_mid_wrist_r			V_mid_wrist_l			V_mid_trunk_low			V_mid_trunk_upp			
		X1	Y1	Z1	X2	Y2	Z2	X3	Y3	Z3	X4	Y4	Z4	X5	Y5	Z5	X6	Y6	Z6	X7	Y7	Z7	X8	Y8	Z8	X9	Y9	Z9	X10	Y10	Z10	X11	Y11	Z11	X12	Y12	Z12	X13	Y13	Z13	X14	Y14	Z14	X15	Y15	Z15	X16	Y16	Z16	X17	Y17	Z17	X18	Y18	Z18	X19	Y19	Z19	X20	Y20	Z20	X21	Y21	Z21	X22	Y22	Z22	X23	Y23	Z23	X24	Y24	Z24	X25	Y25	Z25	X26	Y26	Z26	X27	Y27	Z27	X28	Y28	Z28	

1216	8.100																			4984.31787	877.93585	255.48169				4982.07324	802.67352	285.15219	4996.09668	736.04932	300.76584																																																							
1217	8.107																			4990.70068	877.91119	255.81619				4988.71484	802.76630	285.37387	5002.73682	736.17200	301.09155																																																							
1218	8.113																			4997.20361	878.06146	256.05084				4995.50928	803.13818	285.29935	5009.41357	736.21051	301.33621																																																							
1219	8.120																			5003.75000	878.03052	256.29788				5001.99561	803.08179	285.75406	5016.30908	736.19360	301.58875																																																							
1220	8.127																			5010.42334	878.14661	256.46655				5008.44824	802.99701	286.09424	5023.00391	736.24658	301.72537																																																							
1221	8.133																			5017.11182	878.02509	256.70139				5015.31104	803.05524	286.28348	5029.93848	736.18451	301.75308																																																							
1222	8.140																			5023.82568	878.14984	256.92352				5021.97852	802.85321	286.48935	5036.68555	736.18292	301.84137																																																							
1223	8.147																			5030.37207	878.06232	257.14429				5028.95508	802.88733	286.51743	5043.54688	736.18115	301.95416																																																							
1224	8.153																			5037.10986	878.15723	257.24771				5035.69580	802.96832	286.53522	5050.55078	736.06024	301.99734																																																							
1225	8.160																			5043.76270	877.90082	257.42462				5042.24561	802.92273	286.80362	5057.53906	736.04761	301.74329																																																							
1226	8.167																			5050.43652	877.96204	257.49701				5049.11719	802.57367	286.94757	5064.57275	735.93921	301.73508																																																							
1227	8.173																			5057.15283	877.80139	257.66693				5055.98145	802.48889	286.90491	5071.56592	735.87738	301.63651																																																							
1228	8.180																			5063.82227	877.75403	257.71436				5062.58154	802.32593	286.98694	5078.60986	735.77142	301.26822																																																							
1229	8.187																			5070.72900	877.58521	257.80832				5069.59863	802.07648	286.92776	5085.53418	735.54468	301.23083																																																							
1230	8.193																			5077.30762	877.47076	257.86139				5076.61084	801.70062	286.78790	5092.34766	735.37683	301.06873																																																							
1231	8.200																									5083.34668	801.53168	286.83484	5099.13672	735.17627	300.88309																																																							
1232	8.207																									5090.26318	801.45801	286.62225	5106.39648	734.93671	300.66653																																																							
1233	8.213																									5097.17969	801.19830	286.41232	5113.09814	734.79370	300.48038																																																							
1234	8.220																									5103.97998	800.86499	286.59180	5120.06299	734.62152	300.36328																																																							
1235	8.227																									5110.54199	800.66052	286.53650	5127.15381	734.25323	300.20618																																																							
1236	8.233																									5117.28955	800.28363	286.44507	5133.66504	734.17316	300.03769																																																							
1237	8.240																									5123.93555	800.16577	286.53961	5140.31934	733.97833	300.08182																																																							
1238	8.247																												5146.92090	733.85876	299.93335																																																							
1239	8.253																												5153.62744	733.71967	299.85254																																																							
1240	8.260																												5160.33740	733.52069	299.90314																																																							
1241	8.267																												5166.64209	733.55975	299.86096																																																							
1242	8.273																												5173.37646	733.40295	299.82385																																																							
1243	8.280																												5180.23486	733.20996	299.79095																																																							
1244	8.287																												5186.33740	733.24390	299.71164																																																							
1245	8.293																												5192.62549	733.13745	299.83301																																																							
1246	8.300																												5198.91162	733.08014	299.95895																																																							
